<?xml version="1.0" encoding="utf-8"?>
<!-- Generator: Adobe Illustrator 25.0.0, SVG Export Plug-In . SVG Version: 6.00 Build 0)  -->
<svg version="1.1" id="Layer_1" xmlns="http://www.w3.org/2000/svg" xmlns:xlink="http://www.w3.org/1999/xlink" x="0px" y="0px"
	 viewBox="0 0 1920 698" style="enable-background:new 0 0 1920 698;" xml:space="preserve">
<style type="text/css">
	.st0{fill:none;stroke:#7B00A2;stroke-width:51;stroke-linecap:round;stroke-linejoin:round;stroke-miterlimit:10;}
	.st1{fill:none;stroke:#7B00A2;stroke-width:65;stroke-linecap:round;stroke-linejoin:round;stroke-miterlimit:10;}
	.st2{fill:none;stroke:#7B00A2;stroke-width:55;stroke-linecap:round;stroke-linejoin:round;stroke-miterlimit:10;}
</style>
<path class="st0" d="M93.4,293.4c0,0-71.3-121.2,67-159.7s303.7-8.6,303.7-8.6s-35.6-31.4-62.7,168.2S297.3,732.6,166.1,642.7
	s181.1-278,181.1-278"/>
<path class="st0" d="M486.8,533c0,0,35.8-1.4,35.8,45.6c0,47-35.8,34.2-35.8,34.2s-42,0.6-42-42C444.8,528.2,486.8,533,486.8,533z"
	/>
<path class="st0" d="M885.4,356.3c0,0-211.8-9.4-147.6,209.8c0,0,30,125.1,147.6-67.3s140.4-309.4,140.4-309.4
	s25.7-148.3-34.2-155.4c-59.9-7.1-116.4,278-113.1,400.6s29,163.3,70.3,171.5c41.3,8.2,111.4-63.1,111.6-86"/>
<path class="st0" d="M1112.6,364.7c0,0-99.9,1.5-95.3,119.8c4.6,118.2,81.3,109.8,81.3,109.8s86.2,22.3,102.7-98.4
	C1217.6,375.2,1112.6,364.7,1112.6,364.7s28.8,92.9,94.4,89c65.6-4,72,6.7,72,6.7"/>
<path class="st0" d="M1415.1,433.1c0,0,29.4-95.4-62.7-68.4s-92.4,180.4-45.6,223.8s178.2-2.9,179.6-35.6"/>
<path class="st0" d="M1477.8,392.7c0,0,215.3-135.1,158.3-322.6c-6.8-22.3-34.8-29.5-51.7-13.4c-22.4,21.4-51.5,69-80.9,172.7
	c-11.3,39.6-17.5,80.6-18.6,121.7l-7,255.1c0,0,97-248.3,188.2-246.3l-22.5,187.8c-2.9,24.3,14.6,46.2,38.9,48.9
	c35.5,3.9,83.1-3.7,103.4-63.8"/>
<line class="st1" x1="1785.8" y1="356.3" x2="1759.4" y2="614.4"/>
<path class="st2" d="M1818,203c0,0,26.9,3.3,26.9,26.9s-8.4,27.4-27.4,27.4c-19,0-32.8-2.1-32.8-32.8S1818,203,1818,203z"/>
</svg>
